<svg id="visual" viewBox="0 0 900 600" width="900" height="600" xmlns="http://www.w3.org/2000/svg" xmlns:xlink="http://www.w3.org/1999/xlink" version="1.1"><rect x="0" y="0" width="900" height="600" fill="#ffffff"></rect><defs><linearGradient id="grad1_0" x1="33.3%" y1="100%" x2="100%" y2="0%"><stop offset="20%" stop-color="#ffffff" stop-opacity="1"></stop><stop offset="80%" stop-color="#ffffff" stop-opacity="1"></stop></linearGradient></defs><defs><linearGradient id="grad2_0" x1="0%" y1="100%" x2="66.7%" y2="0%"><stop offset="20%" stop-color="#ffffff" stop-opacity="1"></stop><stop offset="80%" stop-color="#ffffff" stop-opacity="1"></stop></linearGradient></defs><g transform="translate(900, 600)"><path d="M-405.6 0C-404.3 -56.7 -403 -113.5 -374.7 -155.2C-346.5 -197 -291.4 -223.7 -247.5 -247.5C-203.6 -271.2 -171 -292 -131.6 -317.8C-92.3 -343.7 -46.1 -374.6 0 -405.6L0 0Z" fill="#00c096"></path></g><g transform="translate(0, 0)"><path d="M405.6 0C405.4 57.8 405.1 115.7 374.7 155.2C344.4 194.8 284 216 240.4 240.4C196.8 264.9 170.1 292.5 132.8 320.6C95.5 348.7 47.8 377.1 0 405.6L0 0Z" fill="#00c096"></path></g></svg>