<svg id="visual" viewBox="0 0 900 600" width="900" height="600" xmlns="http://www.w3.org/2000/svg" xmlns:xlink="http://www.w3.org/1999/xlink" version="1.1"><rect x="0" y="0" width="900" height="600" fill="#ffffff"></rect><defs><linearGradient id="grad1_0" x1="33.3%" y1="100%" x2="100%" y2="0%"><stop offset="20%" stop-color="#ffffff" stop-opacity="1"></stop><stop offset="80%" stop-color="#ffffff" stop-opacity="1"></stop></linearGradient></defs><defs><linearGradient id="grad2_0" x1="0%" y1="100%" x2="66.7%" y2="0%"><stop offset="20%" stop-color="#ffffff" stop-opacity="1"></stop><stop offset="80%" stop-color="#ffffff" stop-opacity="1"></stop></linearGradient></defs><g transform="translate(900, 600)"><path d="M-486.7 0C-487.1 -70.5 -487.5 -141.1 -449.7 -186.3C-411.9 -231.5 -335.9 -251.4 -285.7 -285.7C-235.4 -320 -210.9 -368.7 -167.6 -404.7C-124.3 -440.6 -62.1 -463.7 0 -486.7L0 0Z" fill="#00B891"></path></g><g transform="translate(0, 0)"><path d="M486.7 0C464 57.9 441.3 115.7 419.4 173.7C397.6 231.8 376.7 290 338.7 338.7C300.7 387.4 245.6 426.6 186.3 449.7C127 472.8 63.5 479.8 0 486.7L0 0Z" fill="#00B891"></path></g></svg>